<svg width="321" height="321" viewBox="0 0 321 321" fill="none" xmlns="http://www.w3.org/2000/svg">
    <g clip-path="url(#clip0_1682_1218)">
        <rect width="280.259" height="280.259" transform="translate(20.5625 19.793)" fill="black" />
        <rect x="20.5625" y="159.922" width="140.13" height="140.13" fill="#A0FFAB" />
        <rect x="20.5625" y="19.793" width="140.13" height="140.13" fill="#FF8F8F" />
        <rect x="160.691" y="19.793" width="140.13" height="140.13" fill="#A0F9FF" />
        <rect x="160.691" y="159.922" width="140.13" height="140.13" fill="#FBEE8C" />
        <path d="M20.5625 159.922L300.822 159.922" stroke="black" stroke-width="2.80259" />
        <path d="M160.691 19.793L160.691 300.052" stroke="black" stroke-width="2.80259" />
        <rect x="298.016" y="154.317" width="2.80259" height="11.2104" fill="black" />
        <rect x="166.297" y="297.25" width="2.80259" height="11.2104"
            transform="rotate(90 166.297 297.25)" fill="black" />
        <rect x="20.5625" y="154.317" width="2.80259" height="11.2104" fill="black" />
        <rect x="166.297" y="19.793" width="2.80259" height="11.2104"
            transform="rotate(90 166.297 19.793)" fill="black" />
    </g>
    <path
        d="M129.621 14.4213C129.137 14.4213 128.697 14.3301 128.302 14.1476C127.908 13.9619 127.594 13.6948 127.362 13.3465C127.13 12.9948 127.013 12.5702 127.013 12.0726C127.013 11.6347 127.1 11.2797 127.272 11.0077C127.445 10.7323 127.675 10.5167 127.964 10.3608C128.253 10.2048 128.571 10.0887 128.919 10.0124C129.271 9.9328 129.624 9.86977 129.979 9.82333C130.444 9.76361 130.82 9.71883 131.109 9.68897C131.401 9.6558 131.613 9.60106 131.746 9.52476C131.882 9.44845 131.95 9.31576 131.95 9.12666V9.08685C131.95 8.59587 131.815 8.21436 131.547 7.94233C131.281 7.67029 130.878 7.53428 130.338 7.53428C129.777 7.53428 129.337 7.65702 129.019 7.90252C128.7 8.14801 128.476 8.41009 128.347 8.68875L127.232 8.29066C127.431 7.82621 127.697 7.46461 128.029 7.20585C128.364 6.94377 128.729 6.76131 129.123 6.65847C129.521 6.55231 129.913 6.49923 130.298 6.49923C130.543 6.49923 130.825 6.52909 131.144 6.5888C131.465 6.6452 131.776 6.76297 132.074 6.94211C132.376 7.12125 132.627 7.39163 132.826 7.75323C133.025 8.11483 133.124 8.59918 133.124 9.20628V14.2422H131.95V13.2071H131.89C131.81 13.373 131.678 13.5505 131.492 13.7396C131.306 13.9287 131.059 14.0896 130.751 14.2223C130.442 14.355 130.066 14.4213 129.621 14.4213ZM129.8 13.3664C130.265 13.3664 130.656 13.2751 130.974 13.0927C131.296 12.9102 131.538 12.6747 131.701 12.3861C131.867 12.0974 131.95 11.7939 131.95 11.4754V10.4006C131.9 10.4603 131.791 10.515 131.621 10.5648C131.456 10.6112 131.263 10.6527 131.044 10.6892C130.829 10.7224 130.618 10.7522 130.412 10.7788C130.21 10.802 130.046 10.8219 129.92 10.8385C129.614 10.8783 129.329 10.943 129.064 11.0325C128.802 11.1188 128.589 11.2498 128.427 11.4257C128.267 11.5982 128.188 11.8337 128.188 12.1323C128.188 12.5403 128.339 12.8489 128.641 13.0579C128.946 13.2635 129.332 13.3664 129.8 13.3664ZM140.085 11.1171V6.59875H141.259V14.2422H140.085V12.9484H140.005C139.826 13.3365 139.547 13.6666 139.169 13.9386C138.791 14.2074 138.313 14.3417 137.736 14.3417C137.258 14.3417 136.834 14.2372 136.462 14.0282C136.09 13.8159 135.799 13.4974 135.586 13.0728C135.374 12.6448 135.268 12.1057 135.268 11.4555V6.59875H136.442V11.3759C136.442 11.9332 136.598 12.3778 136.91 12.7095C137.225 13.0413 137.626 13.2071 138.114 13.2071C138.406 13.2071 138.703 13.1325 139.005 12.9832C139.31 12.8339 139.565 12.605 139.771 12.2965C139.98 11.988 140.085 11.5949 140.085 11.1171ZM146.734 6.59875V7.59399H142.773V6.59875H146.734ZM143.928 4.76751H145.102V12.0527C145.102 12.3844 145.15 12.6332 145.246 12.7991C145.346 12.9616 145.472 13.0711 145.624 13.1275C145.78 13.1806 145.945 13.2071 146.117 13.2071C146.246 13.2071 146.353 13.2005 146.436 13.1872C146.518 13.1706 146.585 13.1574 146.635 13.1474L146.873 14.2024C146.794 14.2322 146.683 14.2621 146.54 14.2919C146.397 14.3251 146.217 14.3417 145.998 14.3417C145.666 14.3417 145.341 14.2704 145.022 14.1277C144.707 13.9851 144.445 13.7678 144.236 13.4759C144.03 13.1839 143.928 12.8157 143.928 12.3711V4.76751ZM151.524 14.4014C150.834 14.4014 150.228 14.2372 149.707 13.9088C149.19 13.5804 148.785 13.1209 148.493 12.5304C148.205 11.9399 148.06 11.2498 148.06 10.4603C148.06 9.66409 148.205 8.96908 148.493 8.37525C148.785 7.78143 149.19 7.3203 149.707 6.99187C150.228 6.66344 150.834 6.49923 151.524 6.49923C152.214 6.49923 152.818 6.66344 153.335 6.99187C153.856 7.3203 154.261 7.78143 154.549 8.37525C154.841 8.96908 154.987 9.66409 154.987 10.4603C154.987 11.2498 154.841 11.9399 154.549 12.5304C154.261 13.1209 153.856 13.5804 153.335 13.9088C152.818 14.2372 152.214 14.4014 151.524 14.4014ZM151.524 13.3465C152.048 13.3465 152.479 13.2121 152.818 12.9434C153.156 12.6747 153.406 12.3214 153.569 11.8835C153.731 11.4456 153.813 10.9712 153.813 10.4603C153.813 9.94939 153.731 9.47333 153.569 9.03211C153.406 8.59089 153.156 8.23426 152.818 7.96223C152.479 7.6902 152.048 7.55418 151.524 7.55418C151 7.55418 150.568 7.6902 150.23 7.96223C149.892 8.23426 149.641 8.59089 149.478 9.03211C149.316 9.47333 149.235 9.94939 149.235 10.4603C149.235 10.9712 149.316 11.4456 149.478 11.8835C149.641 12.3214 149.892 12.6747 150.23 12.9434C150.568 13.2121 151 13.3465 151.524 13.3465ZM159.885 14.4014C159.168 14.4014 158.551 14.2322 158.034 13.8939C157.516 13.5555 157.118 13.0894 156.84 12.4955C156.561 11.9017 156.422 11.2233 156.422 10.4603C156.422 9.68399 156.564 8.99894 156.849 8.40511C157.138 7.80797 157.539 7.34187 158.054 7.0068C158.571 6.66842 159.175 6.49923 159.865 6.49923C160.402 6.49923 160.887 6.59875 161.318 6.7978C161.749 6.99685 162.103 7.27552 162.378 7.6338C162.653 7.99209 162.824 8.41009 162.891 8.8878H161.716C161.627 8.53947 161.428 8.23094 161.119 7.96223C160.814 7.6902 160.402 7.55418 159.885 7.55418C159.427 7.55418 159.026 7.67361 158.681 7.91247C158.339 8.14801 158.072 8.48141 157.88 8.91268C157.69 9.34064 157.596 9.84323 157.596 10.4205C157.596 11.011 157.689 11.5252 157.875 11.9631C158.064 12.401 158.329 12.741 158.671 12.9832C159.016 13.2254 159.42 13.3465 159.885 13.3465C160.19 13.3465 160.467 13.2934 160.716 13.1872C160.965 13.0811 161.175 12.9285 161.348 12.7294C161.52 12.5304 161.643 12.2915 161.716 12.0129H162.891C162.824 12.464 162.66 12.8704 162.398 13.232C162.139 13.5903 161.796 13.8756 161.368 14.0879C160.943 14.2969 160.449 14.4014 159.885 14.4014ZM164.607 14.2422V6.59875H165.742V7.75323H165.822C165.961 7.37504 166.213 7.06817 166.578 6.83263C166.943 6.59709 167.354 6.47932 167.812 6.47932C167.898 6.47932 168.006 6.48098 168.135 6.4843C168.265 6.48762 168.363 6.49259 168.429 6.49923V7.69352C168.389 7.68356 168.298 7.66863 168.155 7.64873C168.016 7.62551 167.868 7.6139 167.712 7.6139C167.341 7.6139 167.009 7.69186 166.717 7.84778C166.429 8.00038 166.2 8.2127 166.031 8.48473C165.865 8.75345 165.782 9.06031 165.782 9.40533V14.2422H164.607ZM172.07 14.4213C171.586 14.4213 171.146 14.3301 170.752 14.1476C170.357 13.9619 170.043 13.6948 169.811 13.3465C169.579 12.9948 169.463 12.5702 169.463 12.0726C169.463 11.6347 169.549 11.2797 169.722 11.0077C169.894 10.7323 170.125 10.5167 170.413 10.3608C170.702 10.2048 171.02 10.0887 171.369 10.0124C171.72 9.9328 172.074 9.86977 172.429 9.82333C172.893 9.76361 173.27 9.71883 173.558 9.68897C173.85 9.6558 174.063 9.60106 174.195 9.52476C174.331 9.44845 174.399 9.31576 174.399 9.12666V9.08685C174.399 8.59587 174.265 8.21436 173.996 7.94233C173.731 7.67029 173.328 7.53428 172.787 7.53428C172.226 7.53428 171.787 7.65702 171.468 7.90252C171.15 8.14801 170.926 8.41009 170.796 8.68875L169.682 8.29066C169.881 7.82621 170.146 7.46461 170.478 7.20585C170.813 6.94377 171.178 6.76131 171.573 6.65847C171.971 6.55231 172.362 6.49923 172.747 6.49923C172.993 6.49923 173.275 6.52909 173.593 6.5888C173.915 6.6452 174.225 6.76297 174.524 6.94211C174.826 7.12125 175.076 7.39163 175.275 7.75323C175.474 8.11483 175.574 8.59918 175.574 9.20628V14.2422H174.399V13.2071H174.34C174.26 13.373 174.127 13.5505 173.941 13.7396C173.756 13.9287 173.509 14.0896 173.2 14.2223C172.891 14.355 172.515 14.4213 172.07 14.4213ZM172.25 13.3664C172.714 13.3664 173.105 13.2751 173.424 13.0927C173.746 12.9102 173.988 12.6747 174.15 12.3861C174.316 12.0974 174.399 11.7939 174.399 11.4754V10.4006C174.349 10.4603 174.24 10.515 174.071 10.5648C173.905 10.6112 173.713 10.6527 173.494 10.6892C173.278 10.7224 173.067 10.7522 172.862 10.7788C172.659 10.802 172.495 10.8219 172.369 10.8385C172.064 10.8783 171.778 10.943 171.513 11.0325C171.251 11.1188 171.039 11.2498 170.876 11.4257C170.717 11.5982 170.637 11.8337 170.637 12.1323C170.637 12.5403 170.788 12.8489 171.09 13.0579C171.395 13.2635 171.782 13.3664 172.25 13.3664ZM180.822 14.4014C180.106 14.4014 179.489 14.2322 178.971 13.8939C178.454 13.5555 178.056 13.0894 177.777 12.4955C177.498 11.9017 177.359 11.2233 177.359 10.4603C177.359 9.68399 177.501 8.99894 177.787 8.40511C178.075 7.80797 178.477 7.34187 178.991 7.0068C179.509 6.66842 180.112 6.49923 180.802 6.49923C181.34 6.49923 181.824 6.59875 182.255 6.7978C182.687 6.99685 183.04 7.27552 183.315 7.6338C183.591 7.99209 183.762 8.41009 183.828 8.8878H182.654C182.564 8.53947 182.365 8.23094 182.056 7.96223C181.751 7.6902 181.34 7.55418 180.822 7.55418C180.364 7.55418 179.963 7.67361 179.618 7.91247C179.276 8.14801 179.009 8.48141 178.817 8.91268C178.628 9.34064 178.533 9.84323 178.533 10.4205C178.533 11.011 178.626 11.5252 178.812 11.9631C179.001 12.401 179.266 12.741 179.608 12.9832C179.953 13.2254 180.358 13.3465 180.822 13.3465C181.127 13.3465 181.404 13.2934 181.653 13.1872C181.902 13.0811 182.113 12.9285 182.285 12.7294C182.458 12.5304 182.581 12.2915 182.654 12.0129H183.828C183.762 12.464 183.597 12.8704 183.335 13.232C183.076 13.5903 182.733 13.8756 182.305 14.0879C181.881 14.2969 181.386 14.4014 180.822 14.4014ZM186.301 17.1085C186.102 17.1085 185.925 17.0919 185.769 17.0587C185.613 17.0289 185.505 16.999 185.445 16.9691L185.744 15.9341C186.029 16.0071 186.281 16.0336 186.5 16.0137C186.719 15.9938 186.913 15.8959 187.082 15.7201C187.255 15.5476 187.412 15.2673 187.555 14.8791L187.774 14.282L184.948 6.59875H186.221L188.331 12.6896H188.411L190.521 6.59875H191.795L188.55 15.3569C188.404 15.7516 188.224 16.0784 188.008 16.3372C187.792 16.5992 187.542 16.7933 187.256 16.9194C186.975 17.0454 186.656 17.1085 186.301 17.1085Z"
        fill="black" />
    <path
        d="M126.258 317.267C125.621 317.267 125.059 317.106 124.571 316.784C124.083 316.459 123.702 316.001 123.426 315.411C123.151 314.817 123.013 314.115 123.013 313.306C123.013 312.503 123.151 311.806 123.426 311.216C123.702 310.625 124.085 310.169 124.576 309.847C125.067 309.525 125.634 309.364 126.278 309.364C126.775 309.364 127.169 309.447 127.457 309.613C127.749 309.776 127.971 309.962 128.124 310.171C128.28 310.376 128.401 310.545 128.487 310.678H128.587V306.916H129.761V317.107H128.627V315.933H128.487C128.401 316.072 128.278 316.248 128.119 316.461C127.96 316.67 127.733 316.857 127.437 317.023C127.142 317.185 126.749 317.267 126.258 317.267ZM126.417 316.212C126.888 316.212 127.286 316.089 127.611 315.843C127.937 315.595 128.184 315.251 128.353 314.813C128.522 314.372 128.607 313.863 128.607 313.286C128.607 312.715 128.524 312.216 128.358 311.788C128.192 311.357 127.947 311.022 127.621 310.783C127.296 310.541 126.895 310.419 126.417 310.419C125.92 310.419 125.505 310.547 125.173 310.803C124.845 311.055 124.598 311.398 124.432 311.833C124.269 312.264 124.188 312.748 124.188 313.286C124.188 313.83 124.271 314.324 124.437 314.769C124.606 315.21 124.855 315.561 125.183 315.824C125.515 316.082 125.926 316.212 126.417 316.212ZM135.28 317.267C134.543 317.267 133.908 317.104 133.374 316.779C132.843 316.451 132.433 315.993 132.145 315.406C131.859 314.815 131.717 314.128 131.717 313.345C131.717 312.562 131.859 311.872 132.145 311.275C132.433 310.675 132.835 310.207 133.349 309.872C133.867 309.534 134.47 309.364 135.16 309.364C135.558 309.364 135.952 309.431 136.34 309.564C136.728 309.696 137.081 309.912 137.4 310.21C137.718 310.506 137.972 310.897 138.161 311.385C138.35 311.872 138.445 312.473 138.445 313.186V313.684H132.553V312.669H137.25C137.25 312.237 137.164 311.853 136.992 311.514C136.822 311.176 136.58 310.909 136.265 310.713C135.953 310.517 135.585 310.419 135.16 310.419C134.693 310.419 134.288 310.536 133.946 310.768C133.608 310.997 133.347 311.295 133.165 311.663C132.982 312.032 132.891 312.426 132.891 312.848V313.525C132.891 314.102 132.991 314.591 133.19 314.993C133.392 315.391 133.672 315.694 134.031 315.903C134.389 316.109 134.805 316.212 135.28 316.212C135.588 316.212 135.867 316.169 136.116 316.082C136.368 315.993 136.585 315.86 136.768 315.684C136.95 315.505 137.091 315.283 137.191 315.017L138.325 315.336C138.206 315.721 138.005 316.059 137.723 316.351C137.441 316.64 137.093 316.865 136.678 317.028C136.263 317.187 135.797 317.267 135.28 317.267ZM140.231 317.107V309.464H141.366V310.658H141.465C141.624 310.25 141.882 309.933 142.236 309.708C142.591 309.479 143.018 309.364 143.515 309.364C144.02 309.364 144.439 309.479 144.774 309.708C145.113 309.933 145.376 310.25 145.566 310.658H145.645C145.841 310.263 146.135 309.95 146.526 309.718C146.917 309.482 147.387 309.364 147.934 309.364C148.618 309.364 149.177 309.578 149.611 310.006C150.046 310.431 150.263 311.093 150.263 311.992V317.107H149.089V311.992C149.089 311.428 148.934 311.025 148.626 310.783C148.317 310.541 147.954 310.419 147.536 310.419C146.999 310.419 146.582 310.582 146.287 310.907C145.992 311.229 145.844 311.637 145.844 312.131V317.107H144.65V311.872C144.65 311.438 144.509 311.088 144.227 310.822C143.945 310.554 143.582 310.419 143.137 310.419C142.832 310.419 142.547 310.501 142.281 310.663C142.019 310.826 141.807 311.051 141.644 311.34C141.485 311.625 141.405 311.955 141.405 312.33V317.107H140.231ZM155.515 317.267C154.825 317.267 154.22 317.102 153.699 316.774C153.182 316.446 152.777 315.986 152.485 315.396C152.196 314.805 152.052 314.115 152.052 313.326C152.052 312.529 152.196 311.834 152.485 311.24C152.777 310.647 153.182 310.186 153.699 309.857C154.22 309.529 154.825 309.364 155.515 309.364C156.205 309.364 156.809 309.529 157.327 309.857C157.848 310.186 158.252 310.647 158.541 311.24C158.833 311.834 158.979 312.529 158.979 313.326C158.979 314.115 158.833 314.805 158.541 315.396C158.252 315.986 157.848 316.446 157.327 316.774C156.809 317.102 156.205 317.267 155.515 317.267ZM155.515 316.212C156.04 316.212 156.471 316.077 156.809 315.809C157.148 315.54 157.398 315.187 157.561 314.749C157.723 314.311 157.805 313.836 157.805 313.326C157.805 312.815 157.723 312.339 157.561 311.897C157.398 311.456 157.148 311.099 156.809 310.827C156.471 310.555 156.04 310.419 155.515 310.419C154.991 310.419 154.56 310.555 154.222 310.827C153.883 311.099 153.633 311.456 153.47 311.897C153.308 312.339 153.226 312.815 153.226 313.326C153.226 313.836 153.308 314.311 153.47 314.749C153.633 315.187 153.883 315.54 154.222 315.809C154.56 316.077 154.991 316.212 155.515 316.212ZM163.877 317.267C163.16 317.267 162.543 317.097 162.026 316.759C161.508 316.421 161.11 315.955 160.831 315.361C160.553 314.767 160.413 314.089 160.413 313.326C160.413 312.549 160.556 311.864 160.841 311.27C161.13 310.673 161.531 310.207 162.045 309.872C162.563 309.534 163.167 309.364 163.857 309.364C164.394 309.364 164.879 309.464 165.31 309.663C165.741 309.862 166.094 310.141 166.37 310.499C166.645 310.857 166.816 311.275 166.882 311.753H165.708C165.618 311.405 165.419 311.096 165.111 310.827C164.806 310.555 164.394 310.419 163.877 310.419C163.419 310.419 163.017 310.539 162.672 310.778C162.331 311.013 162.064 311.347 161.871 311.778C161.682 312.206 161.588 312.708 161.588 313.286C161.588 313.876 161.681 314.39 161.866 314.828C162.055 315.266 162.321 315.606 162.663 315.848C163.008 316.091 163.412 316.212 163.877 316.212C164.182 316.212 164.459 316.159 164.708 316.052C164.957 315.946 165.167 315.794 165.34 315.595C165.512 315.396 165.635 315.157 165.708 314.878H166.882C166.816 315.329 166.652 315.736 166.39 316.097C166.131 316.456 165.788 316.741 165.36 316.953C164.935 317.162 164.441 317.267 163.877 317.267ZM168.599 317.107V309.464H169.734V310.618H169.813C169.953 310.24 170.205 309.933 170.57 309.698C170.935 309.462 171.346 309.345 171.804 309.345C171.89 309.345 171.998 309.346 172.127 309.35C172.257 309.353 172.354 309.358 172.421 309.364V310.559C172.381 310.549 172.29 310.534 172.147 310.514C172.008 310.491 171.86 310.479 171.704 310.479C171.333 310.479 171.001 310.557 170.709 310.713C170.42 310.866 170.191 311.078 170.022 311.35C169.856 311.619 169.773 311.926 169.773 312.271V317.107H168.599ZM176.062 317.287C175.578 317.287 175.138 317.195 174.743 317.013C174.349 316.827 174.035 316.56 173.803 316.212C173.571 315.86 173.455 315.435 173.455 314.938C173.455 314.5 173.541 314.145 173.713 313.873C173.886 313.598 174.116 313.382 174.405 313.226C174.694 313.07 175.012 312.954 175.361 312.878C175.712 312.798 176.065 312.735 176.42 312.689C176.885 312.629 177.261 312.584 177.55 312.554C177.842 312.521 178.054 312.466 178.187 312.39C178.323 312.314 178.391 312.181 178.391 311.992V311.952C178.391 311.461 178.257 311.08 177.988 310.808C177.723 310.536 177.319 310.4 176.779 310.4C176.218 310.4 175.779 310.522 175.46 310.768C175.142 311.013 174.918 311.275 174.788 311.554L173.674 311.156C173.873 310.691 174.138 310.33 174.47 310.071C174.805 309.809 175.17 309.627 175.565 309.524C175.963 309.418 176.354 309.364 176.739 309.364C176.984 309.364 177.266 309.394 177.585 309.454C177.907 309.51 178.217 309.628 178.515 309.807C178.817 309.986 179.068 310.257 179.267 310.618C179.466 310.98 179.565 311.464 179.565 312.072V317.107H178.391V316.072H178.331C178.252 316.238 178.119 316.416 177.933 316.605C177.747 316.794 177.5 316.955 177.192 317.088C176.883 317.22 176.507 317.287 176.062 317.287ZM176.241 316.232C176.706 316.232 177.097 316.14 177.416 315.958C177.737 315.775 177.98 315.54 178.142 315.251C178.308 314.963 178.391 314.659 178.391 314.341V313.266C178.341 313.326 178.232 313.38 178.063 313.43C177.897 313.476 177.704 313.518 177.485 313.554C177.27 313.588 177.059 313.617 176.853 313.644C176.651 313.667 176.487 313.687 176.361 313.704C176.056 313.744 175.77 313.808 175.505 313.898C175.243 313.984 175.03 314.115 174.868 314.291C174.709 314.463 174.629 314.699 174.629 314.998C174.629 315.406 174.78 315.714 175.082 315.923C175.387 316.129 175.774 316.232 176.241 316.232ZM184.814 317.267C184.097 317.267 183.48 317.097 182.963 316.759C182.445 316.421 182.047 315.955 181.769 315.361C181.49 314.767 181.351 314.089 181.351 313.326C181.351 312.549 181.493 311.864 181.779 311.27C182.067 310.673 182.469 310.207 182.983 309.872C183.5 309.534 184.104 309.364 184.794 309.364C185.332 309.364 185.816 309.464 186.247 309.663C186.678 309.862 187.032 310.141 187.307 310.499C187.582 310.857 187.753 311.275 187.82 311.753H186.645C186.556 311.405 186.357 311.096 186.048 310.827C185.743 310.555 185.332 310.419 184.814 310.419C184.356 310.419 183.955 310.539 183.61 310.778C183.268 311.013 183.001 311.347 182.809 311.778C182.62 312.206 182.525 312.708 182.525 313.286C182.525 313.876 182.618 314.39 182.804 314.828C182.993 315.266 183.258 315.606 183.6 315.848C183.945 316.091 184.35 316.212 184.814 316.212C185.119 316.212 185.396 316.159 185.645 316.052C185.894 315.946 186.105 315.794 186.277 315.595C186.45 315.396 186.572 315.157 186.645 314.878H187.82C187.753 315.329 187.589 315.736 187.327 316.097C187.068 316.456 186.725 316.741 186.297 316.953C185.872 317.162 185.378 317.267 184.814 317.267ZM190.293 319.974C190.094 319.974 189.916 319.957 189.76 319.924C189.604 319.894 189.497 319.864 189.437 319.834L189.735 318.799C190.021 318.872 190.273 318.899 190.492 318.879C190.711 318.859 190.905 318.761 191.074 318.585C191.247 318.413 191.404 318.133 191.547 317.744L191.766 317.147L188.939 309.464H190.213L192.323 315.555H192.403L194.513 309.464H195.787L192.542 318.222C192.396 318.617 192.215 318.944 192 319.202C191.784 319.464 191.534 319.659 191.248 319.785C190.966 319.911 190.648 319.974 190.293 319.974Z"
        fill="black" />
    <path
        d="M317.07 139.27L306.879 139.27L306.879 138.095L317.07 138.095L317.07 139.27ZM306.879 141.421L314.522 141.421L314.522 142.595L306.879 142.595L306.879 141.421ZM315.796 142.018C315.796 141.789 315.874 141.592 316.03 141.426C316.186 141.263 316.373 141.182 316.592 141.182C316.811 141.182 316.999 141.263 317.155 141.426C317.311 141.592 317.389 141.789 317.389 142.018C317.389 142.247 317.311 142.442 317.155 142.605C316.999 142.771 316.811 142.854 316.592 142.854C316.373 142.854 316.186 142.771 316.03 142.605C315.874 142.442 315.796 142.247 315.796 142.018ZM306.879 144.905L317.07 144.905L317.07 146.08L313.308 146.08L313.308 146.179C313.441 146.265 313.61 146.385 313.816 146.537C314.025 146.693 314.21 146.916 314.373 147.204C314.539 147.496 314.622 147.891 314.622 148.389C314.622 149.032 314.461 149.599 314.139 150.09C313.817 150.581 313.361 150.965 312.771 151.24C312.18 151.515 311.484 151.653 310.681 151.653C309.871 151.653 309.17 151.515 308.576 151.24C307.985 150.965 307.527 150.583 307.202 150.095C306.881 149.608 306.72 149.045 306.72 148.409C306.72 147.918 306.801 147.524 306.964 147.229C307.129 146.934 307.317 146.707 307.526 146.547C307.738 146.388 307.914 146.265 308.053 146.179L308.053 146.04L306.879 146.04L306.879 144.905ZM310.701 146.06C310.123 146.06 309.614 146.144 309.173 146.314C308.735 146.483 308.392 146.73 308.143 147.055C307.897 147.38 307.775 147.778 307.775 148.249C307.775 148.74 307.904 149.15 308.163 149.478C308.425 149.81 308.776 150.059 309.218 150.225C309.662 150.394 310.157 150.479 310.701 150.479C311.238 150.479 311.722 150.396 312.154 150.23C312.588 150.067 312.932 149.82 313.184 149.488C313.439 149.16 313.567 148.747 313.567 148.249C313.567 147.772 313.446 147.37 313.204 147.045C312.965 146.72 312.63 146.474 312.198 146.309C311.771 146.143 311.271 146.06 310.701 146.06ZM306.72 156.654C306.72 155.918 306.882 155.282 307.207 154.748C307.536 154.217 307.994 153.808 308.581 153.519C309.171 153.234 309.858 153.091 310.641 153.091C311.424 153.091 312.114 153.234 312.711 153.519C313.311 153.808 313.779 154.209 314.114 154.723C314.453 155.241 314.622 155.845 314.622 156.535C314.622 156.933 314.556 157.326 314.423 157.714C314.29 158.102 314.074 158.455 313.776 158.774C313.481 159.092 313.089 159.346 312.602 159.535C312.114 159.724 311.513 159.819 310.8 159.819L310.303 159.819L310.303 153.927L311.318 153.927L311.318 158.625C311.749 158.625 312.134 158.538 312.472 158.366C312.811 158.197 313.078 157.955 313.273 157.639C313.469 157.328 313.567 156.959 313.567 156.535C313.567 156.067 313.451 155.662 313.219 155.32C312.99 154.982 312.691 154.722 312.323 154.539C311.955 154.357 311.56 154.266 311.139 154.266L310.462 154.266C309.885 154.266 309.395 154.365 308.994 154.564C308.596 154.766 308.292 155.047 308.083 155.405C307.877 155.763 307.775 156.18 307.775 156.654C307.775 156.963 307.818 157.241 307.904 157.49C307.994 157.742 308.126 157.96 308.302 158.142C308.481 158.324 308.704 158.465 308.969 158.565L308.65 159.7C308.266 159.58 307.927 159.379 307.635 159.097C307.347 158.815 307.121 158.467 306.959 158.052C306.799 157.638 306.72 157.172 306.72 156.654ZM306.879 161.605L314.522 161.605L314.522 162.74L313.368 162.74L313.368 162.82C313.746 162.959 314.053 163.211 314.288 163.576C314.524 163.941 314.642 164.352 314.642 164.81C314.642 164.896 314.64 165.004 314.637 165.134C314.633 165.263 314.628 165.361 314.622 165.427L313.428 165.427C313.438 165.387 313.452 165.296 313.472 165.153C313.496 165.014 313.507 164.866 313.507 164.711C313.507 164.339 313.429 164.007 313.273 163.715C313.121 163.427 312.908 163.198 312.636 163.029C312.368 162.863 312.061 162.78 311.716 162.78L306.879 162.78L306.879 161.605ZM314.522 170.622L313.527 170.622L313.527 166.661L314.522 166.661L314.522 170.622ZM316.354 167.816L316.354 168.99L309.068 168.99C308.737 168.99 308.488 169.038 308.322 169.134C308.159 169.234 308.05 169.36 307.994 169.513C307.94 169.668 307.914 169.833 307.914 170.005C307.914 170.135 307.921 170.241 307.934 170.324C307.95 170.407 307.964 170.473 307.974 170.523L306.919 170.762C306.889 170.682 306.859 170.571 306.829 170.428C306.796 170.286 306.779 170.105 306.779 169.886C306.779 169.554 306.851 169.229 306.993 168.91C307.136 168.595 307.353 168.333 307.645 168.124C307.937 167.919 308.305 167.816 308.75 167.816L316.354 167.816ZM304.013 173.145C304.013 172.946 304.029 172.769 304.062 172.613C304.092 172.457 304.122 172.349 304.152 172.289L305.187 172.588C305.114 172.873 305.087 173.125 305.107 173.344C305.127 173.563 305.225 173.757 305.401 173.926C305.573 174.099 305.854 174.257 306.242 174.399L306.839 174.618L314.522 171.792L314.522 173.066L308.431 175.175L308.431 175.255L314.522 177.365L314.522 178.639L305.764 175.394C305.369 175.248 305.043 175.068 304.784 174.852C304.522 174.636 304.328 174.386 304.202 174.101C304.076 173.819 304.013 173.5 304.013 173.145Z"
        fill="black" />
    <path
        d="M3.83258 131.845C3.83258 131.36 3.92381 130.921 4.10627 130.526C4.29204 130.131 4.5591 129.818 4.90743 129.585C5.25908 129.353 5.68372 129.237 6.18134 129.237C6.61924 129.237 6.97421 129.323 7.24624 129.496C7.52159 129.668 7.73723 129.899 7.89315 130.188C8.04907 130.476 8.16518 130.795 8.24148 131.143C8.3211 131.495 8.38413 131.848 8.43058 132.203C8.49029 132.667 8.53508 133.044 8.56494 133.332C8.59811 133.624 8.65285 133.837 8.72915 133.969C8.80545 134.105 8.93815 134.173 9.12725 134.173L9.16706 134.173C9.65804 134.173 10.0395 134.039 10.3116 133.77C10.5836 133.505 10.7196 133.102 10.7196 132.561C10.7196 132.001 10.5969 131.561 10.3514 131.242C10.1059 130.924 9.84382 130.7 9.56515 130.571L9.96325 129.456C10.4277 129.655 10.7893 129.92 11.0481 130.252C11.3101 130.587 11.4926 130.952 11.5954 131.347C11.7016 131.745 11.7547 132.137 11.7547 132.521C11.7547 132.767 11.7248 133.049 11.6651 133.367C11.6087 133.689 11.4909 133.999 11.3118 134.298C11.1327 134.6 10.8623 134.85 10.5007 135.049C10.1391 135.248 9.65472 135.348 9.04763 135.348L4.01172 135.348L4.01172 134.173L5.04677 134.173L5.04677 134.114C4.88089 134.034 4.70341 133.901 4.51431 133.716C4.32522 133.53 4.16432 133.283 4.03162 132.974C3.89892 132.666 3.83258 132.289 3.83258 131.845ZM4.88753 132.024C4.88753 132.488 4.97876 132.88 5.16122 133.198C5.34368 133.52 5.57922 133.762 5.86784 133.925C6.15646 134.091 6.46001 134.173 6.77848 134.173L7.85334 134.173C7.79363 134.124 7.73889 134.014 7.68913 133.845C7.64268 133.679 7.60121 133.487 7.56472 133.268C7.53155 133.052 7.50169 132.842 7.47515 132.636C7.45193 132.433 7.43202 132.269 7.41544 132.143C7.37563 131.838 7.31094 131.553 7.22136 131.287C7.13511 131.025 7.00407 130.813 6.82824 130.65C6.65574 130.491 6.4202 130.411 6.12163 130.411C5.71358 130.411 5.40505 130.562 5.19605 130.864C4.99037 131.17 4.88753 131.556 4.88753 132.024ZM7.13677 142.308L11.6552 142.308L11.6552 143.483L4.01172 143.483L4.01172 142.308L5.30553 142.308L5.30553 142.229C4.91739 142.05 4.5873 141.771 4.31527 141.393C4.04655 141.014 3.91219 140.537 3.91219 139.96C3.91219 139.482 4.01669 139.057 4.22569 138.686C4.43801 138.314 4.75649 138.022 5.18112 137.81C5.60908 137.598 6.14816 137.491 6.79839 137.491L11.6552 137.491L11.6552 138.666L6.87801 138.666C6.32067 138.666 5.87613 138.822 5.54439 139.133C5.21264 139.449 5.04677 139.85 5.04677 140.338C5.04677 140.63 5.12141 140.927 5.2707 141.228C5.41998 141.534 5.64889 141.789 5.95741 141.995C6.26593 142.204 6.65905 142.308 7.13677 142.308ZM11.6552 148.958L10.6599 148.958L10.6599 144.997L11.6552 144.997L11.6552 148.958ZM13.4864 146.151L13.4864 147.326L6.20124 147.326C5.8695 147.326 5.62069 147.374 5.45481 147.47C5.29226 147.569 5.18278 147.695 5.12639 147.848C5.07331 148.004 5.04677 148.168 5.04677 148.341C5.04677 148.47 5.0534 148.576 5.06667 148.659C5.08326 148.742 5.09653 148.808 5.10648 148.858L4.05153 149.097C4.02167 149.017 3.99181 148.906 3.96196 148.764C3.92878 148.621 3.91219 148.44 3.91219 148.221C3.91219 147.89 3.98352 147.564 4.12617 147.246C4.26882 146.931 4.48612 146.669 4.77805 146.46C5.06999 146.254 5.43823 146.151 5.88277 146.151L13.4864 146.151ZM8.60972 152.063L4.01172 152.063L4.01172 150.888L14.203 150.889L14.203 152.063L10.4609 152.063L10.4609 152.162C10.8556 152.342 11.1691 152.61 11.4014 152.969C11.6369 153.33 11.7547 153.811 11.7547 154.412C11.7547 154.932 11.6502 155.389 11.4412 155.78C11.2355 156.172 10.9187 156.475 10.4907 156.691C10.0661 156.91 9.52534 157.019 8.86848 157.019L4.01172 157.019L4.01172 155.845L8.78886 155.845C9.39596 155.845 9.86538 155.687 10.1971 155.372C10.5322 155.06 10.6997 154.627 10.6997 154.073C10.6997 153.688 10.6184 153.343 10.4559 153.038C10.2933 152.736 10.0561 152.497 9.74429 152.322C9.43245 152.149 9.05426 152.063 8.60972 152.063ZM3.85248 162.273C3.85248 161.583 4.01669 160.977 4.34512 160.456C4.67355 159.939 5.13302 159.534 5.72353 159.242C6.31404 158.954 7.00407 158.809 7.79363 158.809C8.58982 158.809 9.28482 158.954 9.87865 159.242C10.4725 159.534 10.9336 159.939 11.262 160.456C11.5905 160.977 11.7547 161.583 11.7547 162.273C11.7547 162.963 11.5905 163.567 11.262 164.084C10.9336 164.605 10.4725 165.01 9.87865 165.298C9.28482 165.59 8.58982 165.736 7.79362 165.736C7.00407 165.736 6.31404 165.59 5.72353 165.298C5.13302 165.01 4.67355 164.605 4.34512 164.084C4.01669 163.567 3.85248 162.963 3.85248 162.273ZM4.90743 162.273C4.90743 162.797 5.04179 163.228 5.3105 163.567C5.57922 163.905 5.93253 164.155 6.37043 164.318C6.80834 164.481 7.28274 164.562 7.79362 164.562C8.30451 164.562 8.78057 164.481 9.22179 164.318C9.66301 164.155 10.0196 163.905 10.2917 163.567C10.5637 163.228 10.6997 162.797 10.6997 162.273C10.6997 161.749 10.5637 161.317 10.2917 160.979C10.0196 160.641 9.66302 160.39 9.22179 160.228C8.78057 160.065 8.30451 159.984 7.79362 159.984C7.28274 159.984 6.80834 160.065 6.37043 160.228C5.93253 160.39 5.57922 160.641 5.3105 160.979C5.04179 161.317 4.90743 161.749 4.90743 162.273ZM4.01172 167.529L11.6552 167.529L11.6552 168.663L10.5007 168.663L10.5007 168.743C10.8789 168.882 11.1857 169.135 11.4213 169.499C11.6568 169.864 11.7746 170.276 11.7746 170.734C11.7746 170.82 11.7729 170.928 11.7696 171.057C11.7663 171.186 11.7613 171.284 11.7547 171.351L10.5604 171.351C10.5703 171.311 10.5853 171.22 10.6052 171.077C10.6284 170.938 10.64 170.79 10.64 170.634C10.64 170.262 10.562 169.931 10.4061 169.639C10.2535 169.35 10.0412 169.121 9.76917 168.952C9.50046 168.786 9.19359 168.703 8.84858 168.703L4.01172 168.703L4.01172 167.529ZM4.01172 172.743L11.6552 172.743L11.6552 173.917L4.01172 173.917L4.01172 172.743ZM12.9291 173.34C12.9291 173.111 13.007 172.914 13.1629 172.748C13.3189 172.585 13.5063 172.504 13.7252 172.504C13.9442 172.504 14.1316 172.585 14.2876 172.748C14.4435 172.914 14.5214 173.111 14.5214 173.34C14.5214 173.569 14.4435 173.764 14.2876 173.927C14.1316 174.093 13.9442 174.176 13.7252 174.176C13.5063 174.176 13.3189 174.093 13.1629 173.927C13.007 173.764 12.9291 173.569 12.9291 173.34ZM11.6552 179.392L10.6599 179.392L10.6599 175.431L11.6552 175.431L11.6552 179.392ZM13.4864 176.586L13.4864 177.76L6.20124 177.76C5.8695 177.76 5.62069 177.808 5.45481 177.904C5.29226 178.004 5.18278 178.13 5.12638 178.282C5.0733 178.438 5.04676 178.603 5.04676 178.775C5.04676 178.904 5.0534 179.011 5.06667 179.094C5.08326 179.177 5.09653 179.243 5.10648 179.293L4.05153 179.531C4.02167 179.452 3.99181 179.341 3.96195 179.198C3.92878 179.055 3.91219 178.875 3.91219 178.656C3.91219 178.324 3.98352 177.999 4.12617 177.68C4.26882 177.365 4.48611 177.103 4.77805 176.894C5.06999 176.688 5.43823 176.586 5.88277 176.586L13.4864 176.586ZM1.14543 181.915C1.14543 181.716 1.16202 181.539 1.19519 181.383C1.22505 181.227 1.2549 181.119 1.28476 181.059L2.31981 181.358C2.24683 181.643 2.22029 181.895 2.24019 182.114C2.2601 182.333 2.35796 182.527 2.53379 182.696C2.70629 182.869 2.98662 183.026 3.37476 183.169L3.97191 183.388L11.6552 180.562L11.6552 181.835L5.56429 183.945L5.56429 184.025L11.6552 186.135L11.6552 187.409L2.89705 184.164C2.50227 184.018 2.1755 183.838 1.91674 183.622C1.65466 183.406 1.46059 183.156 1.33452 182.87C1.20846 182.589 1.14543 182.27 1.14543 181.915Z"
        fill="black" />
    <defs>
        <clipPath id="clip0_1682_1218">
            <rect width="280.259" height="280.259" fill="white"
                transform="translate(20.5625 19.793)" />
        </clipPath>
    </defs>
</svg>